<?xml version="1.0" ?><!DOCTYPE svg  PUBLIC '-//W3C//DTD SVG 1.1//EN'  'http://www.w3.org/Graphics/SVG/1.1/DTD/svg11.dtd'><svg enable-background="new 0 0 50 50" id="Layer_1" version="1.1" viewBox="0 0 50 50" xml:space="preserve" xmlns="http://www.w3.org/2000/svg" xmlns:xlink="http://www.w3.org/1999/xlink"><path d="M45,1H5C2.8,1,1,2.8,1,5v40c0,2.2,1.8,4,4,4h40c2.2,0,4-1.8,4-4V5C49,2.8,47.2,1,45,1z" fill="#1F86CC"/><path d="M33,35c4,0,7-3,7-7s-2.8-7-7-7c-0.2,0,0,0-1,0c-0.7-3.4-3-6-8-6c-4.2,0-7,3-7,6v1  c0,0-7,0-7,6c0,4.1,2,7,6,7C16,35,32.9,35,33,35z" fill="#FFFFFF" id="Cloud__x2601_"/></svg>